#!OML:ASF F:\VICON\USERDATA\INSTALL\rory3\rory3.ASF
:FULLY-SPECIFIED
:DEGREES
79
root -0.0184 18.6628 -58.971 4.82504 0.1987 -8.52921
lowerback 14.069 1.12721 9.73516
upperback 0.628743 3.10641 0.82374
thorax -6.77034 1.21975 -5.21497
lowerneck -8.6041 -0.866957 -0.673871
upperneck -6.74576 -1.11516 -0.69436
head -0.663474 -0.538242 -0.122089
rclavicle 2.84262e-014 2.90226e-014
rhumerus -20.922 19.6841 -86.6766
rradius 111.709
rwrist -1.98634
rhand -36.513 41.7257
rfingers 7.12502
rthumb -9.60476 11.9647
lclavicle 2.84262e-014 2.90226e-014
lhumerus -62.9464 -0.837892 91.7326
lradius 106.73
lwrist 25.8936
lhand -38.3278 13.6375
lfingers 7.12502
lthumb -11.3554 43.3101
rfemur 25.167 8.40866 37.9825
rtibia 26.9053
rfoot 33.1952 -5.09245
rtoes 20.2657
lfemur -42.1454 -1.19594 -10.1912
ltibia 34.9308
lfoot 8.02101 -6.1262
ltoes -22.2204
80
root -0.0184 18.6523 -58.8081 4.63788 0.1987 -8.6827
lowerback 14.1566 1.1641 9.55084
upperback 0.788067 3.13128 0.916621
thorax -6.65715 1.24999 -5.0161
lowerneck -8.10729 -0.780765 -0.743039
upperneck -7.43978 -1.00089 -0.5575
head -0.954337 -0.475242 -0.0639018
rclavicle -3.26007e-014 -2.5842e-015
rhumerus -21.6632 20.0432 -87.0146
rradius 111.268
rwrist -2.25803
rhand -36.5581 39.9874
rfingers 7.12502
rthumb -9.64835 10.2284
lclavicle -3.26007e-014 -2.5842e-015
lhumerus -62.0542 -0.963659 91.9878
lradius 106.729
lwrist 25.6114
lhand -38.5293 13.9077
lfingers 7.12502
lthumb -11.5497 43.5695
rfemur 23.7111 8.07682 37.9428
rtibia 32.092
rfoot 32.9663 -6.33659
rtoes 18.8558
lfemur -40.4826 -1.07362 -10.1008
ltibia 32.163
lfoot 8.18141 -5.63438
ltoes -22.0243
81
root -0.0183 18.632 -58.6452 4.44945 0.1987 -8.80822
lowerback 14.1854 1.11181 9.50458
upperback 0.929957 3.04706 0.899783
thorax -6.53354 1.22126 -4.99081
lowerneck -7.52686 -0.755566 -0.477207
upperneck -8.19742 -0.997087 -0.573542
head -1.28578 -0.475706 -0.108275
rclavicle 1.71452e-014 -1.59028e-015
rhumerus -22.5496 20.2237 -87.5562
rradius 110.653
rwrist -2.93061
rhand -36.5338 36.6647
rfingers 7.12502
rthumb -9.6249 6.90455
lclavicle 1.71452e-014 -1.59028e-015
lhumerus -61.0606 -1.32836 92.1452
lradius 106.725
lwrist 25.3569
lhand -36.8421 11.8605
lfingers 7.12502
lthumb -9.92229 41.6067
rfemur 21.9824 7.52597 37.8347
rtibia 37.4035
rfoot 33.2051 -8.0478
rtoes 17.3638
lfemur -38.9786 -0.961769 -10.1413
ltibia 30.0102
lfoot 7.34708 -5.13444
ltoes -22.8555
82
root -0.0183 18.6114 -58.4823 4.1095 0.1987 -8.47408
lowerback 14.3962 1.08352 9.02738
upperback 1.14738 2.93209 0.75436
thorax -6.44789 1.18811 -4.86256
lowerneck -7.24926 -0.708103 -0.42427
upperneck -8.74584 -0.93137 -0.369181
head -1.50398 -0.44375 -0.0514577
rclavicle -3.42904e-015 5.1684e-015
rhumerus -23.4993 20.125 -88.0462
rradius 109.811
rwrist -3.70475
rhand -36.6475 36.0871
rfingers 7.12502
rthumb -9.73452 6.33208
lclavicle -3.42904e-015 5.1684e-015
lhumerus -60.0411 -2.04759 92.337
lradius 106.88
lwrist 25.293
lhand -35.7388 11.107
lfingers 7.12502
lthumb -8.85773 40.9011
rfemur 20.2386 6.90441 37.247
rtibia 42.7163
rfoot 33.8092 -10.0786
rtoes 15.4387
lfemur -37.2977 -0.907294 -10.7602
ltibia 28.4043
lfoot 7.40918 -3.65173
ltoes -22.4168
83
root -0.0183 18.5669 -58.3193 3.93494 0.1987 -8.13946
lowerback 14.8347 0.740018 8.70697
upperback 1.23615 2.45753 0.608553
thorax -6.67176 0.955749 -4.76719
lowerneck -7.14502 -0.598586 -0.464844
upperneck -9.12817 -0.763656 -0.0030083
head -1.6417 -0.361763 0.0707785
rclavicle 1.28216e-014 8.34896e-015
rhumerus -24.4336 19.8244 -88.5208
rradius 108.97
rwrist -4.34332
rhand -36.7708 36.7469
rfingers 7.12502
rthumb -9.85352 6.9975
lclavicle 1.28216e-014 8.34896e-015
lhumerus -58.78 -2.80276 92.5339
lradius 106.991
lwrist 25.3292
lhand -35.4297 11.023
lfingers 7.12502
lthumb -8.55942 40.8296
rfemur 17.9333 5.61908 36.6878
rtibia 48.1176
rfoot 34.0552 -12.6773
rtoes 15.8246
lfemur -36.0611 -1.15497 -11.5514
ltibia 27.1518
lfoot 7.75284 -2.5545
ltoes -23.2765
84
root -0.0182 18.5147 -58.1564 3.77254 0.1987 -7.63583
lowerback 14.5354 0.857016 8.13773
upperback 1.43558 2.46254 0.392512
thorax -6.30229 0.994712 -4.66296
lowerneck -7.03474 -0.532723 -0.450574
upperneck -9.09646 -0.663972 0.226792
head -1.64931 -0.315576 0.140517
rclavicle 5.13858e-014 -2.22639e-014
rhumerus -25.5589 19.4982 -88.9487
rradius 108.168
rwrist -4.92568
rhand -36.9536 36.8054
rfingers 7.12502
rthumb -10.0298 7.06439
lclavicle 5.13858e-014 -2.22639e-014
lhumerus -57.725 -3.49674 92.7691
lradius 107.289
lwrist 25.4107
lhand -34.6022 10.5767
lfingers 7.12502
lthumb -7.76087 40.4143
rfemur 15.9941 5.13816 35.5053
rtibia 53.4605
rfoot 34.4574 -14.5295
rtoes 18.6948
lfemur -34.3507 -0.755833 -12.4526
ltibia 26.3282
lfoot 7.73663 -1.41406
ltoes -24.4509
85
root -0.0182 18.4353 -57.9935 3.38371 0.1987 -6.66258
lowerback 14.941 0.735712 6.99293
upperback 1.44302 2.13241 0.111977
thorax -6.59444 0.848487 -4.26975
lowerneck -6.53163 -0.524186 -0.452081
upperneck -9.14238 -0.63787 0.529247
head -1.74725 -0.307412 0.236714
rclavicle 7.65321e-015 -2.10712e-014
rhumerus -26.9082 19.1234 -89.4379
rradius 107.042
rwrist -5.26262
rhand -37.1781 36.9543
rfingers 7.12502
rthumb -10.2465 7.2239
lclavicle 7.65321e-015 -2.10712e-014
lhumerus -56.9931 -4.3227 92.968
lradius 107.877
lwrist 25.6381
lhand -34.4428 10.7162
lfingers 7.12502
lthumb -7.60699 40.5594
rfemur 14.1718 3.80619 33.8396
rtibia 58.8004
rfoot 34.5088 -16.2238
rtoes 20.5488
lfemur -32.718 -0.641763 -13.9289
ltibia 25.9553
lfoot 8.38081 -1.58011
ltoes -24.0087
86
root -0.0182 18.3446 -57.8306 3.33011 0.1987 -5.86939
lowerback 14.9585 0.872995 5.74927
upperback 1.38512 2.09969 -0.0584092
thorax -6.70771 0.859319 -3.74398
lowerneck -6.04753 -0.505206 -0.497633
upperneck -9.06946 -0.601675 0.72883
head -1.80478 -0.29205 0.30808
rclavicle 1.13307e-014 9.14409e-015
rhumerus -28.1916 18.7371 -89.7407
rradius 105.726
rwrist -5.65132
rhand -37.0413 37.7014
rfingers 7.12502
rthumb -10.1145 7.96451
lclavicle 1.13307e-014 9.14409e-015
lhumerus -55.9066 -5.26564 93.2908
lradius 108.225
lwrist 25.9914
lhand -34.628 10.6612
lfingers 7.12502
lthumb -7.78576 40.4978
rfemur 12.0692 3.05512 32.2164
rtibia 64.0247
rfoot 33.9157 -17.1011
rtoes 22.2939
lfemur -31.4621 0.0924439 -15.1632
ltibia 26.1446
lfoot 9.11802 -2.71874
ltoes -22.9733
87
root -0.0181 18.2403 -57.6677 2.93725 0.1987 -5.25211
lowerback 15.1972 0.873215 4.76655
upperback 1.50698 1.94007 -0.145926
thorax -6.75481 0.808666 -3.255
lowerneck -5.86574 -0.425683 -0.512674
upperneck -8.77023 -0.497189 0.740204
head -1.73953 -0.240304 0.313838
rclavicle 3.18055e-015 3.26007e-014
rhumerus -29.099 18.7057 -89.9657
rradius 104.421
rwrist -6.03928
rhand -37.3962 37.5875
rfingers 7.12502
rthumb -10.4568 7.86755
lclavicle 3.18055e-015 3.26007e-014
lhumerus -54.4571 -6.19557 93.6779
lradius 108.536
lwrist 26.4967
lhand -33.8629 10.2784
lfingers 7.12502
lthumb -7.04725 40.141
rfemur 10.1979 2.084 30.6393
rtibia 69.0842
rfoot 33.0503 -17.1735
rtoes 24.115
lfemur -30.1522 0.877026 -16.2748
ltibia 26.8999
lfoot 9.59725 -5.02671
ltoes -16.3247
88
root -0.0181 18.1383 -57.5047 2.94569 0.1987 -4.40463
lowerback 14.8119 0.707507 3.84754
upperback 1.54487 1.53803 -0.317831
thorax -6.55549 0.642319 -2.82543
lowerneck -5.80034 -0.272635 -0.503567
upperneck -8.32555 -0.29926 0.686969
head -1.60914 -0.141421 0.294949
rclavicle 5.86415e-015 1.51076e-014
rhumerus -30.1581 18.7853 -90.2844
rradius 103.181
rwrist -6.06949
rhand -37.9767 35.8675
rfingers 7.12502
rthumb -11.0168 6.17658
lclavicle 5.86415e-015 1.51076e-014
lhumerus -53.0657 -7.0467 94.0539
lradius 109.107
lwrist 27.0477
lhand -32.4443 9.8188
lfingers 7.12502
lthumb -5.67775 39.7227
rfemur 7.89377 0.803221 28.5704
rtibia 73.9279
rfoot 32.2105 -16.5667
rtoes 23.6293
lfemur -29.535 1.30899 -17.7337
ltibia 28.4032
lfoot 7.63918 -9.65336
ltoes -11.621
89
root -0.0181 18.0349 -57.3418 2.48119 0.1987 -3.66046
lowerback 15.147 0.619014 3.0299
upperback 1.61802 1.28193 -0.535419
thorax -6.69469 0.534483 -2.54958
lowerneck -5.75859 -0.114493 -0.499389
upperneck -7.79951 -0.0824735 0.863321
head -1.45011 -0.0356236 0.348094
rclavicle -1.59028e-014 -1.59028e-014
rhumerus -31.6702 18.4301 -90.6775
rradius 102.03
rwrist -5.83249
rhand -37.8306 35.2301
rfingers 7.12502
rthumb -10.8759 5.53172
lclavicle -1.59028e-014 -1.59028e-014
lhumerus -51.7589 -8.04524 94.3073
lradius 109.882
lwrist 27.4858
lhand -32.0525 10.8429
lfingers 7.12502
lthumb -5.29939 40.7567
rfemur 6.15001 -0.160356 26.6931
rtibia 78.4745
rfoot 31.3131 -15.641
rtoes 23.0886
lfemur -28.3026 1.67983 -18.8397
ltibia 30.5157
lfoot 4.39417 -12.0045
ltoes -7.28725
90
root -0.018 18.0056 -57.1789 4.50125 0.1987 -5.29441
lowerback 16.6573 0.623915 2.31726
upperback 1.63997 1.27324 0.345768
thorax -7.54311 0.547018 -1.23472
lowerneck -1.8004 0.193585 -0.370682
upperneck -11.6206 0.265701 0.0867618
head -3.4216 0.146142 0.0856841
rclavicle 3.47873e-015 -5.56597e-015
rhumerus -42.1828 17.6745 -91.1278
rradius 92.5313
rwrist -1.77244
rhand -33.3092 33.9905
rfingers 7.12502
rthumb -6.51271 4.11061
lclavicle 3.47873e-015 -5.56597e-015
lhumerus -51.135 -8.92592 93.2776
lradius 108.917
lwrist 26.7636
lhand -38.9671 8.85134
lfingers 7.12502
lthumb -11.9719 38.489
rfemur 5.71516 3.32559 29.9687
rtibia 77.1329
rfoot 27.3464 -11.6067
rtoes 20.1413
lfemur -29.6167 2.8784 -17.5846
ltibia 29.7365
lfoot 0.676798 -4.79072
ltoes -8.79407
91
root -0.018 17.8811 -57.016 4.07177 0.1987 -4.88041
lowerback 17.0795 0.282084 1.9242
upperback 1.75822 0.752955 0.268076
thorax -7.67094 0.30618 -0.980861
lowerneck -1.92248 0.206817 -0.467365
upperneck -11.469 0.293671 0.211124
head -3.34657 0.159302 0.142233
rclavicle 3.67752e-015 -7.95139e-016
rhumerus -42.567 16.6637 -90.6368
rradius 90.5893
rwrist -1.41066
rhand -33.5863 33.5751
rfingers 7.12502
rthumb -6.78017 3.70364
lclavicle 3.67752e-015 -7.95139e-016
lhumerus -49.179 -9.75544 93.1682
lradius 109.325
lwrist 27.0304
lhand -39.4585 7.93152
lfingers 7.12502
lthumb -12.4457 37.541
rfemur 3.47705 1.58365 28.8404
rtibia 82.0504
rfoot 25.903 -12.3041
rtoes 21.2449
lfemur -29.0228 2.612 -18.3304
ltibia 33.1982
lfoot -2.91904 -4.92093
ltoes -6.66204
92
root -0.018 17.7574 -56.8531 3.55381 0.1987 -4.40369
lowerback 17.1766 -0.260743 1.88678
upperback 2.18061 0.00982433 0.0343028
thorax -7.28958 -0.0479967 -1.03734
lowerneck -2.21714 0.285124 -0.460451
upperneck -11.5577 0.416179 0.38525
head -3.32363 0.21388 0.195091
rclavicle 3.77691e-015 4.37326e-015
rhumerus -42.6273 15.5789 -90.1874
rradius 88.7385
rwrist -0.831343
rhand -33.5127 33.1437
rfingers 7.12502
rthumb -6.70917 3.26995
lclavicle 3.77691e-015 4.37326e-015
lhumerus -46.6781 -10.54 92.7746
lradius 109.777
lwrist 27.2326
lhand -39.6488 7.4452
lfingers 7.12502
lthumb -12.6292 37.0434
rfemur 1.37073 -0.315504 27.5221
rtibia 86.6765
rfoot 24.1484 -12.5916
rtoes 22.0385
lfemur -28.3044 1.81241 -19.0951
ltibia 36.0057
lfoot -5.72895 -5.07891
ltoes -3.26119
